<svg width="324" height="48" viewBox="0 0 324 48" fill="none" xmlns="http://www.w3.org/2000/svg">
<g clip-path="url(#clip0_111_26)">
<path d="M70.0129 24.0393H40.5283C40.7136 26.3368 41.3165 28.1179 42.34 29.3766C43.3606 30.6354 44.9223 31.5362 47.0223 32.0732C49.1222 32.6101 51.9898 32.8801 55.6338 32.8801C58.0485 32.8801 60.4072 32.6571 62.713 32.214C65.0159 31.768 66.9482 31.2516 68.51 30.656V34.9927C67.1718 35.5473 65.3042 36.0402 62.9072 36.4657C60.5102 36.8911 57.919 37.1053 55.1309 37.1053C50.4486 37.1053 46.6782 36.586 43.8165 35.5473C40.9548 34.5086 38.8754 32.9241 37.5754 30.7939C36.2755 28.6636 35.6255 25.9114 35.6255 22.537C35.6255 12.6018 41.5695 7.63422 53.4603 7.63422C59.4425 7.63422 63.7424 8.83137 66.3629 11.2198C68.9835 13.6112 70.2923 16.698 70.2923 20.4772C70.2923 21.7771 70.1981 22.9625 70.0129 24.0364V24.0393ZM62.6836 13.975C60.769 12.5285 57.6749 11.8066 53.4045 11.8066C49.134 11.8066 46.037 12.4815 44.0135 13.8371C41.9871 15.1898 40.8283 17.367 40.5312 20.3716H65.4453C65.5189 17.5547 64.6012 15.4216 62.6866 13.978L62.6836 13.975Z" fill="black"/>
<path d="M75.5039 0.351532H80.4097V36.272H75.5039V0.351532Z" fill="black"/>
<path d="M87.5125 0.351532H92.4182V36.272H87.5125V0.351532Z" fill="black"/>
<path d="M105.83 35.0485C103.471 33.6782 101.706 31.8795 100.536 29.6554C99.3651 27.4313 98.7798 25.0047 98.7798 22.3698C98.7798 19.7349 99.3651 17.3083 100.536 15.0842C101.706 12.86 103.471 11.0614 105.83 9.69109C108.188 8.32082 111.077 7.63422 114.497 7.63422H123.023C126.441 7.63422 129.329 8.32082 131.691 9.69109C134.049 11.0614 135.805 12.86 136.958 15.0842C138.111 17.3083 138.688 19.7349 138.688 22.3698C138.688 25.0047 138.111 27.4283 136.958 29.6554C135.805 31.8795 134.049 33.6782 131.691 35.0485C129.332 36.4187 126.441 37.1053 123.023 37.1053H114.497C111.077 37.1053 108.188 36.4187 105.83 35.0485ZM122.356 32.8801C126.109 32.8801 128.923 31.9353 130.8 30.0456C132.676 28.1531 133.614 25.5974 133.614 22.3727C133.614 19.148 132.676 16.5894 130.8 14.6998C128.923 12.8101 126.109 11.8624 122.356 11.8624H115.165C111.412 11.8624 108.588 12.7984 106.691 14.6704C104.797 16.5424 103.847 19.1099 103.847 22.3727C103.847 25.6355 104.794 28.156 106.691 30.0456C108.585 31.9353 111.409 32.8801 115.165 32.8801H122.356Z" fill="black"/>
<path d="M146.561 34.7697C144.702 33.2116 143.776 30.7293 143.776 27.3198V0.351532H148.682V8.47046H163.452V12.5842H148.682V26.5422C148.682 28.8397 149.258 30.4711 150.408 31.4365C151.561 32.4018 153.64 32.883 156.652 32.883C157.581 32.883 158.499 32.8097 159.411 32.66C160.32 32.5104 161.39 32.3079 162.617 32.0497C162.875 32.0116 163.099 31.9763 163.284 31.9382C163.469 31.9001 163.637 31.8648 163.787 31.8267V35.9404C162.264 36.3102 160.908 36.5977 159.72 36.8031C158.531 37.0056 157.305 37.1083 156.04 37.1083C151.582 37.1083 148.423 36.3307 146.564 34.7726L146.561 34.7697Z" fill="black"/>
<path d="M29.4051 8.47046L19.2995 28.2118C18.7466 29.3092 17.6996 31.7475 17.6996 31.7475C17.6996 31.7475 16.9349 29.7933 16.1672 28.3937L5.5028 8.47046H0L15.2584 36.1899L14.4938 37.5337C12.1968 41.803 9.89093 42.7096 6.19984 42.7096V47.1021C10.1733 47.1021 14.979 46.6092 18.6701 39.6023L34.8315 8.47046H29.4051Z" fill="black"/>
<path d="M229.627 36.3219H224.594V15.9497C224.594 13.9897 223.377 12.9187 222.236 12.5725C221.742 12.4228 220.047 12.0737 218.83 13.8225L209.551 29.6554C207.651 32.8977 204.333 34.8313 200.674 34.8313C197.016 34.8313 193.695 32.8948 191.795 29.6554L182.516 13.8225C181.298 12.0737 179.604 12.4228 179.11 12.5695C177.969 12.9158 176.751 13.9838 176.751 15.9468V36.319H171.719V15.9497C171.719 12.0737 174.046 8.86365 177.646 7.7692C181.104 6.71875 184.672 8.0186 186.734 11.0819L186.816 11.2139L196.139 27.1232C197.142 28.8338 198.795 29.8138 200.674 29.8138C202.554 29.8138 204.207 28.8338 205.207 27.1232L214.612 11.0819C216.671 8.0186 220.239 6.71582 223.7 7.7692C227.3 8.86365 229.627 12.0737 229.627 15.9497V36.3219Z" fill="#9231F2"/>
<path d="M241.141 22.2348C241.141 16.8828 245.509 12.5285 250.876 12.5285H261.173C266.54 12.5285 270.905 16.8828 270.908 22.2348H276.04C276.04 14.0601 269.37 7.40828 261.173 7.40828H250.876C242.679 7.40828 236.012 14.0601 236.009 22.2348H241.141Z" fill="#9231F2"/>
<path d="M319.612 21.1257C320.742 19.7671 321.854 18.08 321.815 16.3165C321.904 12.414 318.451 8.74334 314.201 8.47339C313.545 8.39417 303.042 8.42058 302.084 8.42058C296.872 8.42058 291.713 8.42645 286.54 8.43231H281.252V36.3248H314.601C319.621 36.3248 323.707 32.5368 323.707 27.8802C323.707 25.1191 321.83 22.672 319.615 21.1315L319.612 21.1257ZM312.145 12.9627C312.245 12.9569 312.839 12.9686 312.921 12.9627C314.227 12.9392 315.504 13.6376 316.092 14.7291C317.239 16.7801 315.339 19.905 312.921 19.8141C312.836 19.817 312.236 19.8111 312.145 19.8141C303.916 19.8082 294.96 19.7759 286.537 19.7965V12.9774C294.963 12.9979 303.901 12.9686 312.145 12.9598V12.9627ZM314.013 31.7035H286.54V24.2271C291.981 24.2271 296.901 24.2389 302.084 24.2301H314.013C316.192 24.2271 317.965 25.8703 317.965 27.8919C317.965 29.9136 316.192 31.7035 314.013 31.7035Z" fill="#9231F2"/>
<path d="M270.902 22.2583C270.746 27.4782 266.443 32.1759 261.176 32.1759H250.879C245.611 32.1759 241.309 27.4782 241.153 22.2583H236.021C236.179 30.3009 242.782 37.296 250.879 37.296H261.176C269.276 37.296 275.878 30.3009 276.034 22.2583H270.902Z" fill="url(#paint0_linear_111_26)"/>
</g>
<defs>
<linearGradient id="paint0_linear_111_26" x1="236.015" y1="29.7757" x2="276.031" y2="29.7757" gradientUnits="userSpaceOnUse">
<stop stop-color="white" stop-opacity="0"/>
<stop offset="0.07" stop-color="#ECDBFC" stop-opacity="0.17"/>
<stop offset="0.16" stop-color="#D4AEF9" stop-opacity="0.39"/>
<stop offset="0.25" stop-color="#C088F7" stop-opacity="0.58"/>
<stop offset="0.35" stop-color="#AF68F5" stop-opacity="0.73"/>
<stop offset="0.44" stop-color="#A250F3" stop-opacity="0.85"/>
<stop offset="0.54" stop-color="#993EF2" stop-opacity="0.93"/>
<stop offset="0.63" stop-color="#9334F2" stop-opacity="0.98"/>
<stop offset="0.72" stop-color="#9231F2"/>
<stop offset="0.96" stop-color="#9231F2"/>
<stop offset="1" stop-color="#9231F2"/>
</linearGradient>
<clipPath id="clip0_111_26">
<rect width="323.704" height="46.7506" fill="white" transform="translate(0 0.351532)"/>
</clipPath>
</defs>
</svg>
