<svg width="273" height="101" viewBox="0 0 273 101" fill="none" xmlns="http://www.w3.org/2000/svg">
<path d="M196.82 82.84C214.173 82.84 228.24 68.7728 228.24 51.42C228.24 34.0672 214.173 20 196.82 20C179.467 20 165.4 34.0672 165.4 51.42C165.4 68.7728 179.467 82.84 196.82 82.84Z" fill="white"/>
<path d="M52 20.9202L34.23 61.5802C33.26 63.8402 31.42 68.8602 31.42 68.8602C31.42 68.8602 30.07 64.8401 28.73 61.9501L9.97998 20.9102H0.300049L27.13 78.0101L25.78 80.7802C21.74 89.5702 17.69 91.4402 11.2 91.4402V100.49C18.18 100.49 26.63 99.4701 33.12 85.0401L61.53 20.9202H52Z" fill="#6201D1"/>
<path d="M119.44 51.1502C119.44 33.7102 106.83 19.6602 90.91 19.6602C73.89 19.6602 60.9 33.8402 60.9 51.5402C60.9 70.8602 75.24 83.2901 92.14 83.2901C100.35 83.2901 108.31 80.4001 114.68 75.2601L110.64 68.2301C105.74 72.3701 99.01 74.7502 92.26 74.7502C81.24 74.7502 72.06 67.0901 70.59 54.9202H119.21C119.2 54.8002 119.44 52.9202 119.44 51.1502ZM70.59 47.6402C71.94 36.2302 80.27 28.2001 90.42 28.2001C100.83 28.2001 109.29 36.3502 110.26 47.6402H70.59Z" fill="#6201D1"/>
<path d="M272.15 78.7602C269.83 80.3902 264.93 83.2802 258.44 83.2802C255.61 83.2802 253.09 82.9102 250.92 82.0502C245 79.7902 241.66 74.1702 241.66 63.7002V28.8102H232.72V20.9002H241.62V0.490234H250.92V5.99023L250.96 5.98024V20.9002H271.3V28.8102H250.96V63.9502C250.96 72.3502 254.52 74.7502 259.29 74.7502C264.81 74.7502 269.08 71.3602 269.08 71.3602L272.15 78.7602Z" fill="#6201D1"/>
<path d="M136.67 0.490234H127.36V83.2902H136.67V0.490234Z" fill="#6201D1"/>
<path d="M155.29 0.490234H145.98V83.2902H155.29V0.490234Z" fill="#6201D1"/>
</svg>
